ModelForces
version=1
nRows=5
nColumns=94
inDegrees=yes

This file contains the forces exerted on a model during a simulation.

A force is a generalized force, meaning that it can be either a force (N) or a torque (Nm).

Units are S.I. units (second, meters, Newtons, ...)
Angles are in degrees.

endheader 
time	addbrev_l	addlong_l	addmagDist_l	addmagIsch_l	addmagMid_l	addmagProx_l	bflh_l	bfsh_l	edl_l	ehl_l	fdl_l	fhl_l	gaslat_l	gasmed_l	glmax1_l	glmax2_l	glmax3_l	glmed1_l	glmed2_l	glmed3_l	glmin1_l	glmin2_l	glmin3_l	grac_l	iliacus_l	perbrev_l	perlong_l	piri_l	psoas_l	recfem_l	sart_l	semimem_l	semiten_l	soleus_l	tfl_l	tibant_l	tibpost_l	vasint_l	vaslat_l	vasmed_l	addbrev_r	addlong_r	addmagDist_r	addmagIsch_r	addmagMid_r	addmagProx_r	bflh_r	bfsh_r	edl_r	ehl_r	fdl_r	fhl_r	gaslat_r	gasmed_r	glmax1_r	glmax2_r	glmax3_r	glmed1_r	glmed2_r	glmed3_r	glmin1_r	glmin2_r	glmin3_r	grac_r	iliacus_r	perbrev_r	perlong_r	piri_r	psoas_r	recfem_r	sart_r	semimem_r	semiten_r	soleus_r	tfl_r	tibant_r	tibpost_r	vasint_r	vaslat_r	vasmed_r	lumbar_extension	lumbar_bending	lumbar_rotation	arm_flex_l	arm_add_l	arm_rot_l	arm_flex_r	arm_add_r	arm_rot_r	elbow_flex_l	elbow_flex_r	pro_sup_l	pro_sup_r	
          6.89000000	         57.74102427	        542.64651591	          3.32164579	          3.49124801	          2.49832026	          3.40853196	          9.47870839	        161.26487267	        156.46428428	         14.66926800	          1.53039192	          3.01197748	         32.55523954	         56.91111411	          7.31612359	          9.93347699	          5.29978177	       1143.29807329	         42.80024084	         18.33355968	        365.13519487	        182.87853131	         12.76632271	          3.06013726	        754.45717825	         39.36767694	        169.80441236	         16.16660632	        975.50981805	       1029.16477200	        107.05987443	         18.42238218	         24.03261726	         20.73026717	        318.08824122	        223.93487844	          4.84437337	         18.76936994	         55.50629081	         27.13929998	          5.96473374	          9.39946696	          4.68016170	          2.91949458	          3.90725824	          2.40334885	         41.57725563	        152.64457141	        103.34587323	         17.14799134	          2.45761210	          6.53489007	         51.14304246	        169.49049919	         57.78697001	        213.48289921	          7.48808220	        142.49406064	         93.42526483	        124.87316069	         14.25709581	         30.47664474	         20.95802340	          4.20983281	         30.99231414	         37.33594173	        103.88208541	        394.87563676	         53.02841311	         34.29049104	        105.02315796	        631.75971245	         12.22105429	         46.93501681	         67.45879896	        185.87302903	          9.23103554	          6.10781064	         19.17527854	         10.35899743	       -166.05105068	        -86.58753708	         -8.70952873	       -133.45316308	         66.39635376	        -61.03644049	         71.79762896	         48.83462158	         33.15196268	        -15.30172447	          9.43468665	         -8.94535156	          2.08490717	
          6.90000000	        141.89191021	        516.45575021	          3.34443626	          3.66795099	          2.29884059	          3.20142586	          6.52190138	        126.14375020	        176.45200869	         15.70708681	          2.38009554	          5.03436011	         36.18142834	         87.31028410	          7.39379196	         10.16985844	          5.40247162	       1169.77680072	         36.04821738	         15.40935260	        374.47258743	        152.33538953	         10.57709031	          2.26339779	        741.59351534	         50.05125370	        180.53983917	         13.02329988	        887.81130304	       1059.69062162	         86.96927368	         11.23307704	         18.47989490	         43.55813815	        328.94155862	        264.00943436	          8.98556634	         20.45769042	         60.33288904	         29.41369301	          5.63402325	          9.11644824	          4.55201155	          2.67191432	          4.08896674	          2.52905724	         14.32071191	        175.81901204	        115.63920870	         17.30207968	          2.95613949	          7.14302965	         68.84670513	        214.49232542	         40.78909238	        136.54704983	          7.15125063	         95.14694120	         49.50064110	         85.77518323	         10.91987872	         25.48599689	         43.18017400	          3.42505255	         26.66224579	         27.01269717	        115.87389632	        435.46227799	         45.56681924	         32.36922488	        130.37455782	        737.35933689	          9.28482435	         43.68297290	         61.01677183	        230.87843077	         10.74350569	          6.90544373	         21.21893289	         11.36292608	       -174.12577889	        -65.88462824	        -21.63837919	       -137.15330701	         12.33171839	         -1.63997603	         43.61932369	          1.78516170	        -12.64393203	        -49.35426708	         10.30778888	          3.27510215	          0.14273044	
          6.91000000	        113.64576009	        463.31294473	          3.45238631	          3.84427563	          2.24643848	          3.14783921	          4.22039344	         98.59657482	        176.64869226	          0.00662826	          3.63588206	          7.75425942	         42.79045796	         86.37432297	          7.48096228	         10.40060681	          5.60766967	       1180.76558473	         30.01202160	         12.87932405	        326.04727685	        125.80980596	          8.69813608	          1.71380989	        713.76673129	         51.16534964	        188.75995929	         10.71702830	        726.51850148	       1073.65887210	         70.84841244	          5.49678824	         14.11509242	         78.32885763	        326.27103932	        280.33445186	         14.96284084	         21.97153809	         64.58124763	         31.47231135	          6.34833849	          9.33005580	          4.34061629	          2.41259813	          4.24667174	          2.88663727	         78.71583024	        159.42959226	        123.70639838	         17.90241085	          3.56879572	          7.89264335	         84.69191552	        258.50632161	         96.23009921	        245.93519236	          6.65294575	        128.43427708	        131.16653079	        225.37326339	          8.86190460	         31.23078694	         28.38241152	          3.08951423	         23.29828218	         31.31920990	        125.61981600	        457.63952682	         39.32836616	         36.84624298	        105.45334908	        861.15781671	          6.32487228	         43.92623159	         54.93737751	        255.12142580	         13.45371564	          8.05978774	         24.36470321	         12.85143779	        -78.90105592	        -42.59905990	         13.55069655	        -65.78099284	        -28.45454053	         38.61560056	         -1.24992079	        -35.77194177	        -46.83127305	        -75.67690922	          4.55639710	          9.03434107	         -3.27410075	
          6.92000000	        181.79481085	        451.16739152	          3.95212059	          4.51515883	          2.48326291	          3.20740192	          3.38733869	         75.53939039	        159.04206763	         32.53610450	          4.64007665	          9.75137914	         45.66845379	        107.74717373	          7.68571456	         10.93174252	          6.34936851	       1160.72103240	         24.52702270	         10.59257465	        309.19021116	        100.61141154	          6.74513858	          1.52004653	        714.32399321	         41.96850008	        188.19353834	          9.22613406	        584.92862603	       1028.19414989	         56.84821475	          2.43432760	         11.49601221	         87.22460467	        312.61247689	        276.87216040	         19.74934689	         23.43850780	         68.61280743	         33.47871179	          6.85408078	          9.24257417	          4.26248490	          2.36265604	          4.40632058	          3.21983364	          0.00569853	        178.91445523	        127.92008254	         18.23539595	          3.97550445	          8.53661531	         77.61545252	        285.01067811	         71.55809355	        166.29014625	          6.36974395	         93.02456417	        132.57987897	        208.66943317	          7.39267337	         26.43180689	         26.64749782	          3.02435142	         19.94331881	         37.93039209	        131.54339112	        446.83012694	         33.31934014	         37.72532910	        125.51489976	        904.91775865	         13.11593434	         41.26024664	         53.98942526	        265.57953765	         16.02206188	          9.12809139	         27.33225522	         14.22264444	        -84.77912190	        -22.89894571	         22.55751976	        -87.57534126	         16.61464214	         40.75492376	        -26.41405053	         -8.76940280	        -72.42852082	        -94.32307224	         27.24019584	          5.54402616	         -4.69468304	
          6.93000000	        186.95114452	        428.13044837	          4.66363832	          5.48983178	          2.83095966	          3.23287364	          4.13346533	         59.01315460	        130.55694538	         18.85602227	          5.21414004	         10.73407619	         40.02904217	         95.91711501	          8.10006209	         11.83893882	          7.47638908	       1134.36024135	         20.09492337	          8.87627777	        245.37052947	         79.03587364	          5.08831075	          1.51295525	        579.84864611	         28.83851731	        177.15956971	          8.96336389	        470.19601102	       1057.30192857	         45.39497266	          1.63805699	         10.23997831	         79.85338221	        276.78508976	        255.28040274	         22.09033332	         24.36653398	         71.00893596	         34.76850352	          7.01252681	          8.78153641	          4.40970414	          2.61214226	          4.55211212	          3.46082868	        206.07084868	        163.50973196	        128.22571692	         16.22181626	          4.83950797	          9.11026521	         74.21450338	        304.21402536	        102.84274472	        245.77218455	          6.50507460	        131.39923146	         40.27596820	         69.66793527	          6.20462308	         37.86212962	          6.91095593	          2.98030421	         16.49432443	         26.85368885	        126.54050610	        422.69254856	         27.47472382	         34.51692947	        100.98500770	        892.08070884	         10.14826856	         29.15682584	         55.33965633	        238.37999044	         19.31474863	         10.08100339	         30.01460284	         15.44306637	        -24.25457266	        -29.87035949	         52.73357290	        -27.84814564	         50.78504818	        -10.46324587	        -25.26614776	         19.89004021	        -16.61464388	        -31.60171178	         18.10249946	         -1.43311469	         -1.71174970	
